<?xml version="1.0" encoding="UTF-8" standalone="no"?>
<!-- Created with Inkscape (http://www.inkscape.org/) -->

<svg
   width="950"
   height="1000"
   viewBox="0 0 950 1000"
   version="1.1"
   id="svg935"
   xmlns:inkscape="http://www.inkscape.org/namespaces/inkscape"
   xmlns:sodipodi="http://sodipodi.sourceforge.net/DTD/sodipodi-0.dtd"
   xmlns="http://www.w3.org/2000/svg"
   xmlns:svg="http://www.w3.org/2000/svg">
  <sodipodi:namedview
     id="namedview937"
     pagecolor="#505050"
     bordercolor="#ffffff"
     borderopacity="1"
     inkscape:showpageshadow="0"
     inkscape:pageopacity="0"
     inkscape:pagecheckerboard="1"
     inkscape:deskcolor="#505050"
     inkscape:document-units="mm"
     showgrid="false" />
  <defs
     id="defs932" />
  <g
     inkscape:label="Layer 1"
     inkscape:groupmode="layer"
     id="layer1">
    <path
       class="cls-1"
       d="m 937.7193,458.06171 c -16.70644,80.45769 -51.57078,163.13047 -104.1143,240.64763 -12.21917,18.00492 -25.37525,35.74312 -39.4846,53.09784 -2.55865,3.15057 -5.15549,6.30068 -7.79012,9.43183 -11.70396,13.95818 -23.77064,27.34154 -36.1428,40.1531 -160.0947,165.6504 -372.12279,234.36679 -532.65672,180.65668 l 75.24561,-105.43067 c 110.31957,20.02838 250.76709,-35.07401 364.44632,-148.60084 13.36627,-13.34566 26.38787,-27.51403 38.93117,-42.46226 1.87086,-2.23466 3.72374,-4.44942 5.53767,-6.70169 14.22509,-17.39364 27.30268,-35.20834 39.23567,-53.28864 24.24864,-36.75491 43.72293,-74.59677 58.23337,-112.28621 L 665.892,566.37651 594.96101,594.63335 524.01193,622.8914 491.93537,597.57409 404.08892,528.26675 354.10301,548.18051 119.16353,641.79373 2.3716821,688.30299 c -3.8568,-46.73831 -0.515248,-96.13205 9.9284129,-146.38543 16.706321,-80.45746 51.570108,-163.13033 104.114035,-240.64783 12.21957,-18.00491 25.37477,-35.74224 39.48446,-53.09775 2.55847,-3.15038 5.15503,-6.30073 7.78996,-9.43194 11.70389,-13.95705 23.77073,-27.34115 36.14298,-40.15261 C 359.92642,32.974692 571.95376,-35.760132 732.4883,17.948482 L 657.24233,123.38007 c -110.31987,-20.02858 -250.76688,35.07386 -364.44689,148.60089 -13.36519,13.34602 -26.38654,27.513 -38.9307,42.46284 -1.87108,2.23394 -3.72315,4.44866 -5.53691,6.70171 -14.2244,17.39371 -27.30307,35.20744 -39.2362,53.28847 -24.24809,36.75399 -43.72296,74.59621 -58.2336,112.28592 l 133.26913,-53.09768 70.93058,-28.25729 70.94939,-28.25788 32.07671,25.31707 87.84633,69.30771 49.98685,-19.91389 234.93811,-93.61303 116.77296,-46.52956 c 3.85738,46.73954 0.51509,96.13309 -9.928,146.38636 z"
       id="path6"
       style="fill:#080808;fill-opacity:1;stroke-width:1.90932" />
  </g>
</svg>
