<?xml version="1.0" encoding="UTF-8" standalone="no"?>
<svg
   width="447.18204"
   height="180"
   viewBox="0 0 447.18204 180"
   version="1.1"
   id="svg43"
   sodipodi:docname="stridebr-banner.svg"
   xml:space="preserve"
   xmlns:inkscape="http://www.inkscape.org/namespaces/inkscape"
   xmlns:sodipodi="http://sodipodi.sourceforge.net/DTD/sodipodi-0.dtd"
   xmlns="http://www.w3.org/2000/svg"
   xmlns:svg="http://www.w3.org/2000/svg"><sodipodi:namedview
     id="namedview45"
     pagecolor="#505050"
     bordercolor="#ffffff"
     borderopacity="1"
     inkscape:showpageshadow="0"
     inkscape:pageopacity="0"
     inkscape:pagecheckerboard="1"
     inkscape:deskcolor="#505050"
     showgrid="false" /><defs
     id="defs15"><linearGradient
       id="bg"
       x1="0"
       y1="0"
       x2="328.63354"
       y2="328.63354"
       gradientTransform="scale(1.8257419,0.54772256)"
       gradientUnits="userSpaceOnUse"><stop
         offset="0%"
         stop-color="#020617"
         id="stop2" /><stop
         offset="100%"
         stop-color="#0f172a"
         id="stop4" /></linearGradient><linearGradient
       id="accent"
       x1="0"
       y1="408.24829"
       x2="24.494898"
       y2="408.24829"
       gradientTransform="scale(8.1649658,0.12247449)"
       gradientUnits="userSpaceOnUse"><stop
         offset="0%"
         stop-color="#38bdf8"
         id="stop7" /><stop
         offset="100%"
         stop-color="#0ea5e9"
         id="stop9" /></linearGradient><clipPath
       id="rounded"><rect
         x="0"
         y="0"
         width="600"
         height="180"
         rx="22"
         ry="22"
         id="rect12" /></clipPath></defs><g
     clip-path="url(#rounded)"
     id="g41"
     transform="translate(-75.395546)"><rect
       width="600"
       height="180"
       fill="url(#bg)"
       id="rect17"
       x="0"
       y="0"
       style="fill:url(#bg)" /><!-- Shapes de fundo --><g
       opacity="0.17"
       id="g23"><path
         d="M -40,40 220,-40 260,10 0,90 Z"
         fill="#38bdf8"
         id="path19" /><circle
         cx="520"
         cy="10"
         r="80"
         fill="#0b1120"
         id="circle21" /><path
         d="m 359.63849,163.19324 260,-80.000007 40,50.000007 -260,80 z"
         fill="#38bdf8"
         id="path1938" /></g><!-- Logo S estilizado --><!-- Título --><g
       transform="translate(248.94968,57.940158)"
       id="g39"><text
         font-family="system-ui, '-apple-system', BlinkMacSystemFont, 'Segoe UI', sans-serif"
         font-size="42px"
         font-weight="700"
         letter-spacing="1.5"
         fill="#e5f6ff"
         id="text33"
         y="39.854942"
         x="0.19569632">Stride<tspan
   fill="#38bdf8"
   id="tspan31">BR</tspan></text><rect
         x="0"
         y="50"
         width="200"
         height="3"
         rx="1.5"
         fill="url(#accent)"
         id="rect35"
         style="fill:url(#accent)" /><text
         x="0"
         y="78"
         font-family="system-ui, '-apple-system', BlinkMacSystemFont, 'Segoe UI', sans-serif"
         font-size="14px"
         fill="#94a3b8"
         id="text37">Registro e controle dos seus treinos.</text><path
         class="cls-1"
         d="m -7.8901207,26.96273 c -2.0304739,9.778699 -6.2678303,19.826616 -12.6538853,29.247926 -1.485098,2.18829 -3.084067,4.344162 -4.798894,6.453427 -0.310975,0.382915 -0.62659,0.765774 -0.946799,1.146329 -1.422481,1.696455 -2.889046,3.323047 -4.392738,4.880144 -19.457654,20.132883 -45.227208,28.484563 -64.738245,21.956723 l 9.145231,-12.813874 c 13.408064,2.434217 30.477831,-4.262839 44.294222,-18.060709 1.624515,-1.62201 3.207139,-3.344011 4.731633,-5.160795 0.22738,-0.271597 0.452576,-0.540775 0.673038,-0.814512 1.728895,-2.113995 3.318325,-4.279165 4.768641,-6.476616 2.94714,-4.467133 5.314015,-9.066371 7.077591,-13.647086 l -16.197248,6.45345 -8.620838,3.43429 -8.623038,3.434439 -3.898535,-3.077025 -10.676717,-8.423504 -6.075207,2.420287 -28.554171,11.3776 -14.19469,5.652661 c -0.46875,-5.680499 -0.0626,-11.683735 1.20668,-17.791451 2.03046,-9.778671 6.26775,-19.826598 12.65386,-29.2479508 1.48514,-2.188287 3.084,-4.344056 4.79887,-6.453416 0.31096,-0.382891 0.62654,-0.76578103 0.94678,-1.14634203 1.42247,-1.69631797 2.889058,-3.32299997 4.392761,-4.88008497 19.457677,-20.1283062 45.227142,-28.4822272 64.738252,-21.9545672 l -9.145276,12.813985 c -13.408098,-2.434242 -30.477803,4.2628213 -44.29429,18.0607142 -1.624384,1.622055 -3.206978,3.343887 -4.731575,5.160867 -0.227408,0.271509 -0.452505,0.5406828 -0.672948,0.8145138 -1.72881,2.114005 -3.318371,4.279056 -4.768705,6.476597 -2.947074,4.46702 -5.314019,9.066303 -7.077619,13.64705 l 16.197317,-6.453407 8.62079,-3.434346 8.623075,-3.434417 3.898553,3.076995 10.676702,8.423548 6.075322,-2.420302 L -20.87822,14.826293 -6.6858223,9.1711642 C -6.2170025,14.851815 -6.623219,20.855028 -7.8924555,26.96273 Z"
         id="path6"
         style="fill:#e5f6ff;fill-opacity:1;stroke-width:0.232055" /></g><rect
       width="447.18204"
       height="180"
       fill="url(#bg)"
       id="rect1940"
       style="fill:none;fill-opacity:1;stroke:none;stroke-width:0.86331"
       x="75.395546"
       y="0" /></g></svg>
