<?xml version="1.0" encoding="UTF-8" standalone="no"?>
<svg
   id="Camada_1"
   data-name="Camada 1"
   viewBox="0 0 1984773.7 305366.76"
   version="1.1"
   sodipodi:docname="StrideBRLogo.svg"
   width="1984773.6"
   height="305366.75"
   xmlns:inkscape="http://www.inkscape.org/namespaces/inkscape"
   xmlns:sodipodi="http://sodipodi.sourceforge.net/DTD/sodipodi-0.dtd"
   xmlns="http://www.w3.org/2000/svg"
   xmlns:svg="http://www.w3.org/2000/svg">
  <sodipodi:namedview
     id="namedview25"
     pagecolor="#505050"
     bordercolor="#ffffff"
     borderopacity="1"
     inkscape:showpageshadow="0"
     inkscape:pageopacity="0"
     inkscape:pagecheckerboard="1"
     inkscape:deskcolor="#505050"
     showgrid="false" />
  <defs
     id="defs4">
    <style
       id="style2">
      .cls-1 {
        fill: #1d1d1b;
      }
    </style>
  </defs>
  <path
     class="cls-1"
     d="m 490.7,239.91 c -8.75,42.14 -27.01,85.44 -54.53,126.04 -6.4,9.43 -13.29,18.72 -20.68,27.81 -1.34,1.65 -2.7,3.3 -4.08,4.94 -6.13,7.31 -12.45,14.32 -18.93,21.03 -83.85,86.76 -194.9,122.75 -278.98,94.62 l 39.41,-55.22 c 57.78,10.49 131.34,-18.37 190.88,-77.83 7,-6.99 13.82,-14.41 20.39,-22.24 0.98,-1.17 1.95,-2.33 2.9,-3.51 7.45,-9.11 14.3,-18.44 20.55,-27.91 12.7,-19.25 22.9,-39.07 30.5,-58.81 l -69.8,27.81 -37.15,14.8 -37.16,14.8 -16.8,-13.26 -46.01,-36.3 -26.18,10.43 L 61.98,336.14 0.81,360.5 c -2.02,-24.48 -0.27,-50.35 5.2,-76.67 8.75,-42.14 27.01,-85.44 54.53,-126.04 6.4,-9.43 13.29,-18.72 20.68,-27.81 1.34,-1.65 2.7,-3.3 4.08,-4.94 6.13,-7.31 12.45,-14.32 18.93,-21.03 C 188.08,17.27 299.13,-18.73 383.21,9.4 L 343.8,64.62 c -57.78,-10.49 -131.34,18.37 -190.88,77.83 -7,6.99 -13.82,14.41 -20.39,22.24 -0.98,1.17 -1.95,2.33 -2.9,3.51 -7.45,9.11 -14.3,18.44 -20.55,27.91 -12.7,19.25 -22.9,39.07 -30.5,58.81 l 69.8,-27.81 37.15,-14.8 37.16,-14.8 16.8,13.26 46.01,36.3 26.18,-10.43 123.05,-49.03 61.16,-24.37 c 2.02,24.48 0.27,50.35 -5.2,76.67 z"
     id="path6"
     style="fill:#080808;fill-opacity:1" />
  <g
     id="g22"
     style="fill:#080808;fill-opacity:1;stroke:none;stroke-opacity:1">
    <path
       d="m 578.85,304.74 -7.11,37.52 h 29.85 l -6.25,31.27 h -29.56 l -9.38,47.18 c -1.14,5.4 -2.27,12.79 -2.27,17.62 0,6.82 2.84,11.65 11.94,11.65 3.41,0 7.67,0 11.08,-0.57 l -4.55,32.12 c -5.4,1.99 -15.63,3.13 -24.16,3.13 -24.73,0 -36.38,-12.51 -36.38,-30.13 0,-7.39 0.85,-15.06 3.13,-25.87 l 10.52,-55.14 h -17.62 l 5.68,-31.27 h 17.91 l 5.12,-26.15 42.07,-11.37 z"
       id="path8"
       style="fill:#080808;fill-opacity:1;stroke:none;stroke-opacity:1" />
    <path
       d="m 599.32,481.54 15.63,-82.71 c 3.98,-21.03 5.69,-44.34 7.11,-56.28 h 35.53 c -0.85,9.38 -1.42,18.76 -2.56,28.42 h 0.85 c 9.95,-18.48 25.3,-31.55 44.34,-31.55 2.56,0 5.12,0 7.67,0.28 l -7.96,39.79 c -1.99,-0.28 -4.26,-0.28 -6.54,-0.28 -26.15,0 -38.37,23.31 -43.49,50.6 l -9.66,51.73 h -40.93 z"
       id="path10"
       style="fill:#080808;fill-opacity:1;stroke:none;stroke-opacity:1" />
    <path
       d="m 704.49,481.54 26.43,-138.99 h 40.93 l -26.43,138.99 z m 51.73,-156.33 c -11.37,0 -19.61,-7.96 -19.61,-19.9 0,-13.93 11.09,-23.31 23.59,-23.31 12.5,0 20.75,7.96 20.75,20.18 0,14.5 -11.08,23.02 -24.16,23.02 h -0.57 z"
       id="path12"
       style="fill:#080808;fill-opacity:1;stroke:none;stroke-opacity:1" />
    <path
       d="m 942.96,279.73 -28.14,147.81 c -3.41,17.62 -5.97,37.52 -6.54,54.01 h -37.52 l 1.99,-22.46 h -0.57 c -12.22,18.48 -29.28,25.58 -45.76,25.58 -23.59,0 -42.92,-18.76 -42.92,-52.58 0,-48.32 34.96,-92.95 87.55,-92.95 5.68,0 13.08,1.14 19.04,3.41 l 12.22,-62.82 z m -58.55,95.5 c -3.41,-2.84 -9.66,-4.83 -16.2,-4.83 -24.73,0 -42.07,28.42 -42.07,55.14 0,16.77 7.39,26.15 19.04,26.15 11.65,0 26.43,-12.51 31.83,-39.22 l 7.39,-37.24 z"
       id="path14"
       style="fill:#080808;fill-opacity:1;stroke:none;stroke-opacity:1" />
    <path
       d="m 1055.24,473.58 c -16.2,8.24 -36.38,11.09 -52.02,11.09 -39.51,0 -59.97,-22.46 -59.97,-58.84 0,-42.35 30.7,-86.41 81.01,-86.41 28.14,0 48.32,15.92 48.32,41.78 0,35.25 -34.39,48.04 -90.39,46.62 0.28,3.98 1.71,10.23 4.55,14.21 5.4,7.11 14.78,10.8 26.72,10.8 15.07,0 27.86,-3.41 38.94,-8.81 z m -36.1,-104.32 c -19.04,0 -30.13,15.92 -32.97,28.71 32.12,0.28 48.04,-3.98 48.04,-17.05 0,-6.82 -5.68,-11.65 -15.07,-11.65 z"
       id="path16"
       style="fill:#080808;fill-opacity:1;stroke:none;stroke-opacity:1" />
    <path
       d="m 1118.62,293.09 c 13.64,-2.84 31.55,-4.55 50.31,-4.55 20.18,0 34.68,2.56 47.47,9.95 12.79,6.54 22.17,19.04 22.17,35.25 0,24.16 -17.62,39.51 -38.66,45.48 v 0.85 c 18.48,5.69 30.13,20.75 30.13,41.78 0,21.03 -11.09,35.53 -26.15,45.48 -16.2,11.08 -40.36,15.63 -72.2,15.63 -21.6,0 -38.94,-1.42 -48.32,-3.41 z m 10.23,157.18 c 4.83,0.57 9.66,0.57 15.63,0.57 22.17,0 42.35,-8.81 42.35,-30.13 0,-19.04 -15.92,-24.73 -34.96,-24.73 h -12.79 z m 16.49,-84.13 h 13.64 c 22.46,0 37.8,-9.66 37.8,-26.15 0,-13.64 -11.08,-19.61 -26.72,-19.61 -7.11,0 -13.08,0.57 -16.2,1.14 l -8.53,44.62 z"
       id="path18"
       style="fill:#080808;fill-opacity:1;stroke:none;stroke-opacity:1" />
    <path
       d="m 1284.61,293.37 c 12.79,-3.13 32.12,-4.83 51.16,-4.83 19.04,0 36.95,2.56 50.31,11.09 12.51,7.39 21.32,19.61 21.32,37.24 0,28.42 -18.76,46.33 -43.49,54.29 v 0.85 c 11.37,5.12 16.49,17.62 18.19,34.96 2.56,21.6 3.98,46.62 7.39,54.57 h -42.07 c -1.71,-5.12 -3.7,-21.6 -5.4,-45.19 -1.99,-23.31 -9.95,-30.41 -26.15,-30.41 h -12.51 l -14.21,75.61 h -40.36 l 35.81,-188.17 z m 25.02,81.86 h 16.77 c 22.17,0 38.37,-13.36 38.37,-32.12 0,-15.63 -12.79,-22.46 -29.28,-22.46 -7.67,0 -12.51,0.57 -15.92,1.42 l -9.95,53.15 z"
       id="path20"
       style="fill:#080808;fill-opacity:1;stroke:none;stroke-opacity:1" />
  </g>
</svg>
