<svg fill="currentColor" xmlns="http://www.w3.org/2000/svg"
	 viewBox="0 0 412.425 412.425" xml:space="preserve"><path d="M412.425,108.933c0-30.529-10.941-58.18-30.808-77.86C361.776,11.418,333.91,0.593,303.153,0.593
	c-41.3,0-83.913,18.749-116.913,51.438c-30.319,30.034-48.754,68.115-51.573,105.858c-0.845,5.398-1.634,11.13-2.462,17.188
	c-4.744,34.686-10.603,77.415-34.049,104.503c-2.06,0.333-3.981,1.295-5.476,2.789L7.603,367.447
	c-10.137,10.138-10.137,26.632,0,36.77c4.911,4.911,11.44,7.615,18.385,7.615s13.474-2.705,18.386-7.617l85.06-85.095
	c1.535-1.536,2.457-3.448,2.784-5.438c27.087-23.461,69.829-29.322,104.524-34.068c6.549-0.896,12.734-1.741,18.508-2.666
	c1.434-0.23,2.743-0.76,3.885-1.507c36.253-4.047,72.464-21.972,101.325-50.562C393.485,192.166,412.425,149.905,412.425,108.933z
	 M145.476,218.349c4.984,10.244,11.564,19.521,19.608,27.49c8.514,8.434,18.51,15.237,29.576,20.262
	c-25.846,5.238-52.769,13.823-73.415,30.692l-6.216-6.216C131.639,270.246,140.217,243.831,145.476,218.349z M30.23,390.075
	c-1.133,1.133-2.64,1.757-4.242,1.757c-1.603,0-3.109-0.624-4.243-1.757c-2.339-2.339-2.339-6.146,0-8.485l78.006-78.007
	l8.469,8.469L30.23,390.075z M243.559,256.318c-0.002,0-0.008,0-0.011,0c-25.822-0.003-48.087-8.54-64.389-24.688
	c-16.279-16.126-24.883-38.136-24.883-63.652c0-2.596,0.1-5.201,0.276-7.808c0.023-0.143,0.045-0.295,0.068-0.438
	c0.11-0.685,0.147-1.364,0.117-2.031c2.87-32.422,19.121-65.253,45.579-91.461c29.284-29.009,66.767-45.646,102.837-45.646
	c25.819,0,48.085,8.537,64.389,24.689c16.279,16.126,24.883,38.136,24.883,63.651c-0.001,35.672-16.781,72.755-46.04,101.739
	C317.1,239.682,279.624,256.319,243.559,256.318z"/></svg>
